<svg width="32" height="32" viewBox="0 0 32 32" fill="none" xmlns="http://www.w3.org/2000/svg">
  <defs>
    <linearGradient id="w" x1="0" y1="0" x2="32" y2="0" gradientUnits="userSpaceOnUse">
      <stop offset="0" stop-color="#6ea0ff"/>
      <stop offset="1" stop-color="#a8d4ff"/>
    </linearGradient>
  </defs>
  <rect width="32" height="32" rx="8.5" fill="#161b26"/>
  <path d="M5.5 13 C 8 13, 8 11.5, 10.5 11.5 S 13.5 14.5, 16 14.5 S 19 11.5, 21.5 11.5 S 24 13, 26.5 13" stroke="url(#w)" stroke-width="2.4" stroke-linecap="round" fill="none"/>
  <path d="M5.5 19 C 8 19, 8 20.5, 10.5 20.5 S 13.5 17.5, 16 17.5 S 19 20.5, 21.5 20.5 S 24 19, 26.5 19" stroke="url(#w)" stroke-width="2.4" stroke-linecap="round" fill="none" opacity="0.62"/>
  <g stroke="#e8ecf4" stroke-width="2" stroke-linecap="round" opacity="0.5">
    <line x1="10.5" y1="6" x2="10.5" y2="26"/>
    <line x1="16" y1="6" x2="16" y2="26"/>
    <line x1="21.5" y1="6" x2="21.5" y2="26"/>
  </g>
  <path d="M8.6 11.7 C 9.4 11.5, 9.7 11.5, 10.5 11.5 C 11.3 11.5, 11.8 11.7, 12.4 12.1" stroke="url(#w)" stroke-width="2.4" stroke-linecap="round" fill="none"/>
  <path d="M19.6 12.1 C 20.2 11.7, 20.7 11.5, 21.5 11.5 C 22.3 11.5, 22.6 11.6, 23.4 11.8" stroke="url(#w)" stroke-width="2.4" stroke-linecap="round" fill="none"/>
  <path d="M14.1 17.9 C 14.7 17.6, 15.2 17.5, 16 17.5 C 16.8 17.5, 17.3 17.6, 17.9 17.9" stroke="url(#w)" stroke-width="2.4" stroke-linecap="round" fill="none" opacity="0.62"/>
</svg>
